<svg xmlns="http://www.w3.org/2000/svg" viewBox="0 0 28 28"><g id="Capa_2" data-name="Capa 2"><rect x="2.45" y="3.58" width="23.11" height="20.84" rx="1.35" style="fill:#1e91d6"/><path d="M13.79,14.66h5.38a3,3,0,0,0,.42,0,.67.67,0,0,0,.62-.66.68.68,0,0,0-.63-.66,2.41,2.41,0,0,0-.38,0H13.82l.2-.22c.46-.41.93-.82,1.39-1.25a.61.61,0,0,0,0-1,.79.79,0,0,0-1.09,0L11.43,13.5a.6.6,0,0,0,0,1c1,.9,2,1.79,3,2.67a.81.81,0,0,0,1.08,0,.63.63,0,0,0,0-1c-.45-.42-.91-.82-1.37-1.23Z" style="fill:#fff"/><rect x="7.79" y="9.07" width="2.29" height="2.54" rx="0.39" style="fill:#fff"/><rect x="7.79" y="12.73" width="2.29" height="2.54" rx="0.39" style="fill:#fff"/><rect x="7.79" y="16.38" width="2.29" height="2.54" rx="0.39" style="fill:#fff"/></g></svg>