<?xml version="1.0" encoding="UTF-8"?>
<svg xmlns="http://www.w3.org/2000/svg" viewBox="0 0 100 100">
  <g style="isolation: isolate;">
    <g id="ICONOS">
      <g id="Sistema_Catastral" data-name="Sistema Catastral">
        <g>
          <g>
            <rect x="16.9" y="23.63" width="68.2" height="55.49" rx="3.96" ry="3.96" transform="translate(-6.73 7.7) rotate(-8.1)" style="fill: #f07167; stroke: #a64e47; stroke-miterlimit: 10; stroke-width: .25px;"/>
            <path d="M79.98,30.93v41.46c0,1.29-1.05,2.34-2.34,2.34H16.15c-.13,0-.27,0-.4-.02-2.19-.16-3.9-1.7-3.9-3.57s1.71-3.41,3.9-3.57c.13-.01,.26-.02,.4-.02,.96,0,1.86,.27,2.57,.71V19.36h48.63l12.63,11.57Z" style="fill: #f07167; stroke: #a64e47; stroke-miterlimit: 10; stroke-width: .25px;"/>
            <path d="M18.72,17.58v50.68c-.72-.45-1.61-.71-2.57-.71-.13,0-.27,0-.4,.02-2.19,.16-3.9,1.7-3.9,3.57V20.46c0-1.98,1.92-3.59,4.3-3.59,.96,0,1.86,.27,2.57,.71Z" style="fill: #f07167; stroke: #a64e47; stroke-miterlimit: 10; stroke-width: .25px;"/>
            <g style="opacity: .55;">
              <path d="M18.72,17.58v.61c-.31-.06-.64-.09-.97-.09-2.37,0-4.3,1.61-4.3,3.59v46.66c-.97,.66-1.6,1.67-1.6,2.8V20.46c0-1.98,1.92-3.59,4.3-3.59,.96,0,1.86,.27,2.57,.71Z" style="fill: #fff;"/>
            </g>
            <path d="M79.98,30.93h-9.68c-1.63,0-2.95-1.32-2.95-2.95v-8.61l12.63,11.57Z" style="fill: #a64e47;"/>
            <g style="opacity: .3;">
              <path d="M79.94,34.21h-8.01c-1.63,0-2.95-1.32-2.95-2.95v-.63c.4,.2,.84,.31,1.31,.31h9.55l.1,3.28Z" style="fill: #a64e47;"/>
            </g>
            <g style="mix-blend-mode: multiply; opacity: .1;">
              <g>
                <polygon points="80.1 55.24 80.04 53.32 80.12 53.16 80.27 37.14 69.63 37.14 64.46 43.16 55.26 36.07 53.61 38.21 74.74 54.49 79.92 55.91 80.1 55.24 80.1 55.24 80.1 55.24" style="fill: #594341;"/>
                <path d="M43.18,19.25l-2.7,.22,1.52,18.77,12.19,10.22-5.05,4.83c-.29-.22-.57-.44-.88-.64l-9.65-6.12c-2.69-1.7-4.29-4.62-4.29-7.8V19.36h-4.18v19.36c0,4.62,2.33,8.86,6.24,11.34l9.55,6.06-3.78,1.69-2.66-2.7-7.26-4.68h-4.81l-1.67-10.03h-7.04v2.71h4.74l3.73,22.38v9.24h2.71v-8.47l18.05-8.07,.17-.16c1.4,1.64,2.2,3.73,2.2,5.97,0,3.13,1.1,6.19,3.11,8.59l1.79,2.15h5.45l-4.03-4.83c-1.38-1.66-2.14-3.76-2.14-5.92,0-3.33-1.22-6.44-3.36-8.86l5.14-4.91,12.98,10.88v13.64h2.71v-14.9l-27.36-22.93-1.43-17.65Z" style="fill: #594341;"/>
                <polygon points="63 27.3 62.38 19.36 55.62 19.36 57 27.73 63 27.3" style="fill: #594341;"/>
                <polygon points="27.19 19.36 18.72 19.36 18.72 35.97 24.85 32.4 27.19 19.36" style="fill: #594341;"/>
                <polygon points="57.16 59.39 63.49 69.56 66.82 69.19 66.82 62.18 59.35 56.98 57.16 59.39" style="fill: #594341;"/>
                <polygon points="54.14 34.62 51 36.77 60.67 44.58 63 41.69 54.14 34.62" style="fill: #594341;"/>
                <polygon points="31.58 67.57 31.58 73.11 46.78 69.85 45.86 61.36 31.58 67.57" style="fill: #594341;"/>
              </g>
            </g>
            <path d="M21.82,19.36v55.37h-5.67c-.13,0-.27,0-.4-.02-2.19-.16-3.9-1.7-3.9-3.57s1.71-3.41,3.9-3.57c.13-.01,.26-.02,.4-.02,.96,0,1.86,.27,2.57,.71V19.36h3.1Z" style="fill: #a64e47;"/>
            <g style="opacity: .3;">
              <path d="M20.97,77.44c.6,0,51.44-1.08,51.44-1.08l2.05-1.34H19.92l1.05,2.42Z" style="fill: #a64e47;"/>
            </g>
          </g>
          <g>
            <path d="M53.45,58.92c-.57,0-1.04-.46-1.04-1.04v-9.69c0-.43-.1-.96-.28-1.15-.51-.5-1.46-.82-2.41-.82-1.1,0-2.03,.42-2.47,.83-.19,.18-.29,.71-.29,1.14v9.69c0,.57-.46,1.04-1.04,1.04h-6.78c-.57,0-1.04-.46-1.04-1.04v-10.77c0-.24-.2-.44-.44-.44h-4c-.44,0-.59-.21-.64-.34-.05-.13-.09-.38,.21-.7l15.74-15.89c.2-.2,.46-.31,.73-.31s.53,.11,.73,.3c0,0,4.04,4.05,4.04,4.05,0,0,0-3.21,0-3.21,0-.57,.46-1.04,1.04-1.04h.59c.57,0,1.04,.46,1.04,1.04v5.25c0,.33,.2,.82,.43,1.05l8.71,8.75c.31,.31,.27,.57,.22,.69-.05,.13-.21,.34-.64,.34h-4.15c-.24,0-.44,.2-.44,.44v10.77c0,.57-.46,1.04-1.04,1.04h-6.79Z" style="fill: #ffd2d2;"/>
            <path d="M66.83,62.84l-1.03-.6-1.03-.6c-.09-.05-.19-.08-.29-.08s-.2,.03-.29,.08c-.18,.1-.29,.29-.29,.5v.61h-28.73v-.61c0-.21-.11-.4-.29-.5-.09-.05-.19-.08-.29-.08s-.2,.03-.29,.08l-1.03,.6-1.03,.6c-.18,.1-.29,.29-.29,.5s.11,.4,.29,.5l1.03,.6,1.03,.6c.09,.05,.19,.08,.29,.08s.2-.03,.29-.08c.18-.1,.29-.29,.29-.5v-.61h28.73v.61c0,.21,.11,.4,.29,.5,.09,.05,.19,.08,.29,.08s.2-.03,.29-.08l1.03-.6,1.03-.6c.18-.1,.29-.29,.29-.5s-.11-.4-.29-.5Z" style="fill: #ffd2d2;"/>
            <path d="M30.87,60.81h-.61v-28.73h.61c.21,0,.4-.11,.5-.29,.1-.18,.1-.4,0-.58l-.6-1.03-.6-1.03c-.1-.18-.29-.29-.5-.29s-.4,.11-.5,.29l-.6,1.03-.6,1.03c-.1,.18-.1,.4,0,.58,.1,.18,.29,.29,.5,.29h.61v28.73h-.61c-.21,0-.4,.11-.5,.29-.1,.18-.1,.4,0,.58l.6,1.03,.6,1.03c.1,.18,.29,.29,.5,.29s.4-.11,.5-.29l.6-1.03,.6-1.03c.1-.18,.1-.4,0-.58s-.29-.29-.5-.29Z" style="fill: #ffd2d2;"/>
          </g>
        </g>
      </g>
    </g>
  </g>
</svg>